# xmcd
#
# Track frame offsets: 
#        150
#        14262
#        34027
#        52312
#        63853
#        83094
#        101278
#        120096
#        135545
#        150838
#        168327
#
# Disc length: 2504 seconds
#
# Revision: 0
# Processed by: cddbd v1.5.2PL0 Copyright (c) Steve Scherf et al.
# Submitted via: ExactAudioCopy v1.3
#
DISCID=7609c60b
DTITLE=Beth Nielsen Chapman - Hearts Of Glass
DYEAR=2018
DGENRE=Americana
TTITLE0=Come To Mine
TTITLE1=Old Church Hymns and Nursery Rhymes
TTITLE2=Epitaph For Love
TTITLE3=Enough For Me
TTITLE4=Rage On Rage
TTITLE5=You're Still My Valentine
TTITLE6=All For The Love
TTITLE7=Child Again
TTITLE8=If My World Didn't Have You
TTITLE9=Life Holds On
TTITLE10=Dancer To The Drum
EXTD=
EXTT0=
EXTT1=
EXTT2=
EXTT3=
EXTT4=
EXTT5=
EXTT6=
EXTT7=
EXTT8=
EXTT9=
EXTT10=
PLAYORDER=
